<svg width="156" height="61" viewBox="0 0 156 61" fill="none" xmlns="http://www.w3.org/2000/svg">
<rect x="109.5" y="12.5" width="36" height="36" rx="7.5" fill="#FFDC77" stroke="black" stroke-width="5"/>
<path d="M119 23.5V38.5C119 38.8978 119.163 39.2794 119.453 39.5607C119.742 39.842 120.136 40 120.545 40H124.409C124.819 40 125.212 39.842 125.502 39.5607C125.792 39.2794 125.955 38.8978 125.955 38.5V23.5C125.955 23.1022 125.792 22.7206 125.502 22.4393C125.212 22.158 124.819 22 124.409 22H120.545C120.136 22 119.742 22.158 119.453 22.4393C119.163 22.7206 119 23.1022 119 23.5ZM130.591 22H134.455C134.864 22 135.258 22.158 135.547 22.4393C135.837 22.7206 136 23.1022 136 23.5V38.5C136 38.8978 135.837 39.2794 135.547 39.5607C135.258 39.842 134.864 40 134.455 40H130.591C130.181 40 129.788 39.842 129.498 39.5607C129.208 39.2794 129.045 38.8978 129.045 38.5V23.5C129.045 23.1022 129.208 22.7206 129.498 22.4393C129.788 22.158 130.181 22 130.591 22Z" fill="black"/>
<rect x="59.5" y="12.5" width="36" height="36" rx="7.5" fill="#FFDC77" stroke="black" stroke-width="5"/>
<path fill-rule="evenodd" clip-rule="evenodd" d="M71.396 23.2968C71.4228 23.0697 71.5023 22.8519 71.6281 22.6609C71.7539 22.4699 71.9226 22.3109 72.1207 22.1966C72.3189 22.0823 72.5409 22.0158 72.7693 22.0025C72.9976 21.9892 73.2259 22.0293 73.436 22.1198C74.498 22.5738 76.878 23.6528 79.898 25.3958C82.919 27.1398 85.044 28.6628 85.967 29.3538C86.755 29.9448 86.757 31.1168 85.968 31.7098C85.054 32.3968 82.955 33.8998 79.898 35.6658C76.838 37.4318 74.486 38.4978 73.434 38.9458C72.528 39.3328 71.514 38.7458 71.396 37.7688C71.258 36.6268 71 34.0338 71 30.5318C71 27.0318 71.257 24.4398 71.396 23.2968Z" fill="black"/>
<rect x="9.5" y="12.5" width="36" height="36" rx="7.5" fill="#FFDC77" stroke="black" stroke-width="5"/>
<path d="M27.0794 29.4661C26.9031 29.567 26.7567 29.7126 26.6548 29.8883C26.553 30.064 26.4993 30.2635 26.4993 30.4666C26.4993 30.6697 26.553 30.8691 26.6548 31.0448C26.7567 31.2205 26.9031 31.3662 27.0794 31.4671L36.2262 36.7743C36.9737 37.2084 37.9986 36.7125 37.9986 35.7738V25.1593C37.9986 24.2206 36.9737 23.7247 36.2262 24.1588L27.0794 29.4661Z" fill="black"/>
<path d="M15.5801 29.4661C15.4038 29.567 15.2574 29.7126 15.1555 29.8883C15.0536 30.064 15 30.2635 15 30.4666C15 30.6697 15.0536 30.8691 15.1555 31.0448C15.2574 31.2205 15.4038 31.3662 15.5801 31.4671L24.7269 36.7743C25.4744 37.2084 26.4993 36.7125 26.4993 35.7738V25.1593C26.4993 24.2206 25.4744 23.7247 24.7269 24.1588L15.5801 29.4661Z" fill="black"/>
</svg>
