<svg width="156" height="61" viewBox="0 0 156 61" fill="none" xmlns="http://www.w3.org/2000/svg">
<rect x="59.5" y="12.5" width="36" height="36" rx="7.5" fill="#957FEF" stroke="black" stroke-width="5"/>
<path d="M72.2857 39.8333C72.2857 40.475 72.8 41 73.4286 41H82.5714C83.2 41 83.7143 40.475 83.7143 39.8333V36.3333H72.2857V39.8333ZM84.8571 24.6667C84.2286 24.6667 83.7143 25.1917 83.7143 25.8333V22.3333C83.7143 21.05 82.6857 20 81.4286 20H72.2857C71.0286 20 70 21.05 70 22.3333V29.1C70 29.2517 70.0114 29.4033 70.0457 29.555L70.96 34.2217C71.0629 34.77 71.5314 35.155 72.08 35.155H83.92C84.4343 35.155 84.9371 34.735 85.04 34.2217L85.9543 29.555C85.9886 29.4033 86 29.2517 86 29.1V25.8333C86 25.1917 85.4857 24.6667 84.8571 24.6667ZM81.4286 28.1667H72.2857V24.6667H81.4286V28.1667Z" fill="black"/>
<rect x="9.5" y="12.5" width="36" height="36" rx="7.5" fill="#957FEF" stroke="black" stroke-width="5"/>
<path d="M26.35 38C24.4333 38 22.8042 37.3194 21.4625 35.9583C20.1208 34.5972 19.45 32.9444 19.45 31C19.45 30.7861 19.4596 30.5722 19.4788 30.3583C19.4979 30.1444 19.5267 29.9306 19.565 29.7167C19.4692 29.7556 19.3542 29.7847 19.22 29.8042C19.0858 29.8236 18.9708 29.8333 18.875 29.8333C18.07 29.8333 17.3896 29.5514 16.8337 28.9875C16.2779 28.4236 16 27.7333 16 26.9167C16 26.1 16.2637 25.4097 16.7912 24.8458C17.3187 24.2819 17.9845 24 18.7888 24C19.4213 24 19.9917 24.1797 20.5 24.539C21.0083 24.8983 21.3674 25.3603 21.5775 25.925C22.21 25.3417 22.9337 24.875 23.7487 24.525C24.5637 24.175 25.4308 24 26.35 24H39V28.6667H33.25V31C33.25 32.9444 32.5792 34.5972 31.2375 35.9583C29.8958 37.3194 28.2667 38 26.35 38ZM18.875 28.0833C19.2008 28.0833 19.4741 27.9713 19.6949 27.7473C19.9157 27.5233 20.0258 27.2464 20.025 26.9167C20.025 26.5861 19.9146 26.3092 19.6938 26.086C19.473 25.8628 19.2001 25.7508 18.875 25.75C18.5492 25.75 18.2762 25.862 18.0562 26.086C17.8362 26.31 17.7258 26.5869 17.725 26.9167C17.725 27.2472 17.8354 27.5245 18.0562 27.7485C18.277 27.9725 18.5499 28.0841 18.875 28.0833ZM26.35 33.3333C26.9825 33.3333 27.5241 33.1051 27.9749 32.6485C28.4257 32.1919 28.6508 31.6424 28.65 31C28.65 30.3583 28.425 29.8092 27.9749 29.3527C27.5249 28.8961 26.9833 28.6674 26.35 28.6667C25.7175 28.6667 25.1762 28.8953 24.7262 29.3527C24.2762 29.81 24.0508 30.3591 24.05 31C24.05 31.6417 24.2754 32.1912 24.7262 32.6485C25.177 33.1058 25.7183 33.3341 26.35 33.3333Z" fill="black"/>
<rect x="109.5" y="12.5" width="36" height="36" rx="7.5" fill="#957FEF" stroke="black" stroke-width="5"/>
<path d="M123.15 40C122.2 40 121.342 39.925 120.575 39.775C119.808 39.625 119.267 39.3833 118.95 39.05C118.65 38.7333 118.417 38.1833 118.25 37.4C118.083 36.6167 118 35.7333 118 34.75C118 32.8333 118.338 30.996 119.013 29.238C119.688 27.48 120.617 26.0007 121.8 24.8C122.983 23.6167 124.463 22.6877 126.238 22.013C128.013 21.3383 129.884 21.0007 131.85 21C132.8 21 133.658 21.075 134.425 21.225C135.192 21.375 135.733 21.6167 136.05 21.95C136.35 22.2667 136.583 22.8167 136.75 23.6C136.917 24.3833 137 25.2667 137 26.25C137 28.1667 136.663 30.0043 135.988 31.763C135.313 33.5217 134.384 35.0007 133.2 36.2C132.017 37.3833 130.538 38.3127 128.763 38.988C126.988 39.6633 125.117 40.0007 123.15 40ZM120.05 34.35C120.6 33.15 121.267 31.9793 122.05 30.838C122.833 29.6967 123.7 28.634 124.65 27.65C125.6 26.7 126.646 25.8333 127.788 25.05C128.93 24.2667 130.101 23.6 131.3 23.05C129.783 23.1 128.296 23.4127 126.838 23.988C125.38 24.5633 124.184 25.3173 123.25 26.25C122.267 27.2 121.496 28.3917 120.938 29.825C120.38 31.2583 120.084 32.7667 120.05 34.35ZM123.7 37.95C125.217 37.9 126.704 37.5877 128.163 37.013C129.622 36.4383 130.817 35.684 131.75 34.75C132.733 33.8 133.504 32.6083 134.063 31.175C134.622 29.7417 134.917 28.2333 134.95 26.65C134.4 27.85 133.733 29.021 132.95 30.163C132.167 31.305 131.3 32.3673 130.35 33.35C129.4 34.3 128.354 35.1667 127.213 35.95C126.072 36.7333 124.901 37.4 123.7 37.95Z" fill="black"/>
</svg>
