<svg width="114" height="61" viewBox="0 0 114 61" fill="none" xmlns="http://www.w3.org/2000/svg">
<rect x="63.5" y="12.5" width="36" height="36" rx="7.5" fill="#6BCEFF" stroke="black" stroke-width="5"/>
<path d="M85.5569 32.906L85.1019 33.359C85.1019 33.359 84.0189 34.435 81.0639 31.497C78.1089 28.559 79.1919 27.483 79.1919 27.483L79.4779 27.197C80.1849 26.495 80.2519 25.367 79.6349 24.543L78.3749 22.86C77.6109 21.84 76.1359 21.705 75.2609 22.575L73.6909 24.135C73.2579 24.567 72.9679 25.125 73.0029 25.745C73.0929 27.332 73.8109 30.745 77.8149 34.727C82.0619 38.949 86.0469 39.117 87.6759 38.965C88.1919 38.917 88.6399 38.655 89.0009 38.295L90.4209 36.883C91.3809 35.93 91.1109 34.295 89.8829 33.628L87.9729 32.589C87.1669 32.152 86.1869 32.28 85.5569 32.906Z" fill="black"/>
<rect x="13.5" y="12.5" width="36" height="36" rx="7.5" fill="#6BCEFF" stroke="black" stroke-width="5"/>
<path d="M39 23H25C24.2044 23 23.4413 23.3161 22.8787 23.8787C22.3161 24.4413 22 25.2044 22 26V36C22 36.7956 22.3161 37.5587 22.8787 38.1213C23.4413 38.6839 24.2044 39 25 39H39C39.7956 39 40.5587 38.6839 41.1213 38.1213C41.6839 37.5587 42 36.7956 42 36V26C42 25.2044 41.6839 24.4413 41.1213 23.8787C40.5587 23.3161 39.7956 23 39 23ZM39 25L32.5 29.47C32.348 29.5578 32.1755 29.604 32 29.604C31.8245 29.604 31.652 29.5578 31.5 29.47L25 25H39Z" fill="black"/>
</svg>
